<?xml version="1.0" encoding="UTF-8" standalone="no"?>
<svg width="20px" height="24px" viewBox="0 0 20 24" version="1.1" xmlns="http://www.w3.org/2000/svg" xmlns:xlink="http://www.w3.org/1999/xlink">
    <!-- Generator: Sketch 39 (31667) - http://www.bohemiancoding.com/sketch -->
    <title>Shape</title>
    <desc>Created with Sketch.</desc>
    <defs></defs>
    <g id="Page-1" stroke="none" stroke-width="1" fill="none" fill-rule="evenodd">
        <g id="Desktop-HD-Copy-6" transform="translate(-913.000000, -3066.000000)" fill="#000000">
            <g id="2" transform="translate(0.000000, 2859.000000)">
                <g id="Group-8" transform="translate(496.000000, 196.000000)">
                    <g id="quora" transform="translate(405.000000, 0.000000)">
                        <path d="M23.3299647,29.647975 C22.8735364,29.7646432 22.4118538,29.8101456 21.9657591,29.8101456 C19.5941186,29.8101456 16.7539648,28.7457535 16.7539648,22.1025853 C16.7539648,15.4610552 19.728455,13.6271265 22.1002706,13.6271265 C24.4715608,13.6271265 27.2293964,15.2075158 27.2293964,21.8497739 C27.2293964,24.8607587 26.6400329,26.7756816 25.7730644,27.9714846 C25.7601037,27.9722127 25.7492447,27.9689365 25.7492447,27.9689365 C23.7771103,25.3247011 21.2180645,25.9584585 20.6043559,26.2456697 C20.6043559,26.2456697 20.6826457,26.8521256 20.8450053,27.9543757 C22.1987022,27.9540117 22.8689827,28.6835062 23.3371457,29.6255878 C23.3325919,29.6359624 23.3299647,29.647975 23.3299647,29.647975 L23.3299647,29.647975 Z M27.1861355,30.917856 C27.1861355,30.917856 27.1885875,30.9100295 27.1913899,30.9018391 C30.073053,29.0447952 32,25.6570506 32,21.5978727 C32,13.7778304 27.1267613,11 22.0324894,11 C17.2245799,11 12,14.9252189 12,21.7485766 C12,29.5688008 16.8721878,32.436726 21.9689117,32.436726 C22.7698505,32.436726 23.5485459,32.3368028 24.2957151,32.151699 C24.2957151,32.151699 24.3069244,32.1555212 24.3139302,32.1566133 C26.3219693,35.8850798 29.3123976,34.9828582 30.083912,34.6887307 C30.083912,34.6887307 29.9804013,34.0325861 29.7993012,32.8114838 C28.3566306,32.7730798 27.7138479,32.0204701 27.1861355,30.917856 L27.1861355,30.917856 Z" id="Shape"></path>
                    </g>
                </g>
            </g>
        </g>
    </g>
</svg>