<?xml version="1.0" encoding="UTF-8"?>
<svg width="20px" height="26px" viewBox="0 0 20 26" version="1.1" xmlns="http://www.w3.org/2000/svg" xmlns:xlink="http://www.w3.org/1999/xlink">
    <!-- Generator: Sketch 42 (36781) - http://www.bohemiancoding.com/sketch -->
    <title>point_down</title>
    <desc>Created with Sketch.</desc>
    <defs></defs>
    <g id="Page-1" stroke="none" stroke-width="1" fill="none" fill-rule="evenodd">
        <g id="Desktop-HD-Copy-9" transform="translate(-710.000000, -468.000000)" fill-rule="nonzero">
            <g id="point_down" transform="translate(710.000000, 468.000000)">
                <g id="Group">
                    <path d="M18.309375,14.383871 C16.453125,14.216129 15.8203125,12.7064516 15.609375,11.9935484 L15.525,11.6580645 C15.525,11.6580645 15.3140625,11.4064516 15.0609375,11.0290323 L14.9765625,11.0290323 C14.9765625,11.0290323 14.765625,14.3 14.934375,15.3483871 C15.103125,16.5225806 15.103125,21.7225806 15.1453125,23.0225806 C15.2296875,24.5322581 14.934375,25.6225806 13.246875,25.6225806 C11.5171875,25.6225806 11.0109375,24.2806452 11.0953125,23.0225806 C11.221875,21.2612903 11.3484375,15.3483871 11.3484375,15.3483871 C11.1796875,16.1032258 10.8421875,16.816129 9.5765625,16.6903226 C8.1421875,16.5225806 7.846875,15.9774194 7.8046875,15.0967742 C7.0875,16.3129032 6.1171875,16.2290323 5.5265625,16.0612903 C4.5140625,15.8096774 4.21875,14.0064516 4.21875,14.0064516 C3.8390625,15.3483871 3.20625,15.0967742 2.3203125,14.9709677 C1.6875,14.8870968 1.096875,14.3419355 0.84375,13.4193548 C0.6328125,12.4967742 -0.084375,11.8258065 0.9703125,4.61290323 C1.2234375,2.72580645 2.9109375,1.80322581 5.4,1.34193548 C7.0875,1.0483871 9.4078125,0.587096774 11.1375,0.461290323 L11.6015625,0.461290323 C12.571875,0.419354839 13.5,0.796774194 14.1328125,1.63548387 L17.9296875,6.70967742 L17.9296875,6.70967742 C18.1828125,6.96129032 18.3515625,7.29677419 18.4359375,7.71612903 C18.5625,9.01612903 18.9,10.6096774 19.74375,12.4967742 C20.0390625,13.2096774 19.575,14.5096774 18.309375,14.383871" id="Shape" fill="#FFDD67"></path>
                    <g transform="translate(0.843750, 0.000000)" id="Shape" fill="#EBA352">
                        <path d="M1.9828125,15.0129032 C3.5859375,15.2645161 3.459375,12.7903226 3.121875,13.8387097 C2.784375,14.9290323 1.9828125,15.0129032 1.9828125,15.0129032"></path>
                        <path d="M5.0625,16.1032258 C7.25625,16.3129032 7.0453125,13.8806452 6.6234375,14.8870968 C6.2015625,15.8935484 5.0625,16.1032258 5.0625,16.1032258"></path>
                        <path d="M8.690625,16.6483871 C10.884375,16.8580645 10.6734375,14.2580645 10.2515625,15.2645161 C9.8296875,16.3129032 8.690625,16.6483871 8.690625,16.6483871"></path>
                        <path d="M14.0484375,10.9870968 C14.0484375,10.9870968 14.68125,16.2709677 14.34375,22.9806452 C14.3015625,23.9451613 14.3015625,25.4548387 12.5296875,25.5387097 C14.5546875,24.9516129 13.6265625,18.283871 14.0484375,10.9870968"></path>
                        <path d="M18.5625,14.0064516 C18.646875,13.7129032 18.6046875,13.3774194 18.5203125,13.1677419 C17.634375,11.2806452 17.3390625,9.68709677 17.2125,8.38709677 C17.1703125,7.96774194 17.0015625,7.63225806 16.70625,7.38064516 L12.909375,2.26451613 C12.31875,1.46774194 11.3484375,1.0483871 10.378125,1.09032258 L9.9140625,1.09032258 C8.2265625,1.21612903 5.90625,1.67741935 4.21875,1.97096774 C2.446875,2.26451613 1.0546875,2.8516129 0.3375,3.81612903 C0.8859375,2.39032258 2.446875,1.67741935 4.5984375,1.3 C6.2859375,1.00645161 8.60625,0.54516129 10.3359375,0.419354839 L10.8,0.419354839 C11.7703125,0.377419355 12.6984375,0.75483871 13.33125,1.59354839 L17.0859375,6.70967742 L17.0859375,6.70967742 C17.3390625,6.96129032 17.5078125,7.29677419 17.5921875,7.71612903 C17.71875,9.01612903 18.05625,10.6096774 18.9,12.4967742 C19.06875,12.916129 18.984375,13.5870968 18.5625,14.0064516"></path>
                        <path d="M14.5546875,9.22580645 C14.5546875,9.22580645 15.103125,11.0290323 15.3140625,11.8677419 C15.4828125,12.5806452 16.1578125,13.8806452 17.2546875,14.383871 C15.4828125,14.1322581 14.8921875,12.7064516 14.68125,11.9935484 L14.596875,11.6580645 C14.596875,11.6580645 14.3015625,11.4483871 14.00625,11.0290323 C14.0484375,10.9870968 14.6390625,10.1903226 14.5546875,9.22580645"></path>
                        <path d="M10.209375,14.8451613 C10.125,14.5935484 9.9984375,14.4258065 9.871875,14.216129 C9.7453125,14.0064516 9.61875,13.8387097 9.4921875,13.5870968 C9.365625,13.3774194 9.28125,13.083871 9.28125,12.8322581 C9.28125,12.5806452 9.365625,12.2870968 9.4921875,12.0774194 C9.4921875,12.3290323 9.534375,12.5806452 9.61875,12.7903226 C9.6609375,13 9.7875,13.2096774 9.871875,13.4193548 C9.95625,13.6290323 10.0828125,13.8387097 10.1671875,14.0903226 C10.2515625,14.3419355 10.29375,14.5935484 10.209375,14.8451613"></path>
                        <path d="M6.8765625,14.1741935 C6.7921875,13.9225806 6.665625,13.7548387 6.5390625,13.5451613 C6.4125,13.3354839 6.2859375,13.1677419 6.159375,12.916129 C6.0328125,12.7064516 5.9484375,12.4129032 5.9484375,12.1612903 C5.9484375,11.9096774 6.0328125,11.616129 6.159375,11.4064516 C6.159375,11.6580645 6.2015625,11.9096774 6.2859375,12.1193548 C6.328125,12.3290323 6.4546875,12.5387097 6.5390625,12.7483871 C6.6234375,12.9580645 6.75,13.1677419 6.834375,13.4193548 C6.91875,13.6290323 6.9609375,13.9225806 6.8765625,14.1741935"></path>
                        <path d="M3.290625,13.1677419 C3.20625,12.916129 3.0796875,12.7483871 2.953125,12.5387097 C2.8265625,12.3290323 2.7,12.1612903 2.5734375,11.9096774 C2.446875,11.7 2.3625,11.4064516 2.3625,11.1548387 C2.3625,10.9032258 2.446875,10.6096774 2.5734375,10.4 C2.5734375,10.6516129 2.615625,10.9032258 2.7,11.1129032 C2.7421875,11.3225806 2.86875,11.5322581 2.953125,11.7419355 C3.0375,11.9516129 3.1640625,12.1612903 3.2484375,12.4129032 C3.3328125,12.6225806 3.375,12.916129 3.290625,13.1677419"></path>
                    </g>
                </g>
            </g>
        </g>
    </g>
</svg>