<?xml version="1.0" encoding="UTF-8"?>
<svg width="141px" height="43px" viewBox="0 0 141 43" version="1.1" xmlns="http://www.w3.org/2000/svg" xmlns:xlink="http://www.w3.org/1999/xlink">
    <!-- Generator: Sketch 47.1 (45422) - http://www.bohemiancoding.com/sketch -->
    <title>Group</title>
    <desc>Created with Sketch.</desc>
    <defs></defs>
    <g id="Page-1" stroke="none" stroke-width="1" fill="none" fill-rule="evenodd">
        <g id="Desktop-HD-Copy-9" transform="translate(-1079.000000, -603.000000)">
            <g id="Path-2-Copy-+-Path-2-Copy-2-+-Path-2-Mask" transform="translate(611.000000, 112.000000)">
                <g id="Group" transform="translate(468.000000, 491.000000)">
                    <polygon id="Rectangle-2" fill="#FFF144" points="5.17710583 26 141 26 135.822894 35 0 35"></polygon>
                    <path d="M14.597068,25.3425532 C15.3273364,23.5432534 15.9282775,22.0489421 16.3999092,20.8595745 C16.8715409,19.6702068 17.2366697,18.6943301 17.4953064,17.9319149 C17.7539432,17.1694997 17.9365076,16.5672008 18.043005,16.125 C18.1495025,15.6827992 18.2027505,15.3092214 18.2027505,15.0042553 C18.2027505,14.3943232 17.7159121,13.9673771 16.7422208,13.7234043 C16.5292259,13.662411 16.3770889,13.5937947 16.2858053,13.5175532 C16.1945218,13.4413117 16.1488807,13.2812069 16.1488807,13.037234 C16.1488807,12.9457442 16.1640944,12.8313837 16.1945222,12.6941489 C16.2249501,12.5569142 16.2553775,12.4120575 16.2858053,12.2595745 C17.5029194,12.3510643 18.8265112,12.3968085 20.2566202,12.3968085 C21.5345901,12.3968085 22.7060448,12.3510643 23.7710196,12.2595745 C23.8318753,12.4120575 23.8699096,12.5797863 23.8851235,12.762766 C23.9003374,12.9457456 23.9079443,13.0677302 23.9079443,13.1287234 C23.9079443,13.4641861 23.7101662,13.6776591 23.3146041,13.7691489 C22.8886142,13.8606388 22.546306,13.9445032 22.2876692,14.0207447 C22.0290325,14.0969862 21.800827,14.2189708 21.603046,14.3867021 C21.4052649,14.5544335 21.2303074,14.7679065 21.0781682,15.0271277 C20.9260289,15.2863488 20.7586782,15.6446786 20.5761111,16.1021277 L13.8668032,32.4787234 C13.7146639,32.5397166 13.5549201,32.5702128 13.3875669,32.5702128 L12.9083306,32.5702128 C12.6953356,32.5702128 12.4899507,32.4482282 12.2921697,32.2042553 C12.0943886,31.9602825 11.8281489,31.4418479 11.4934425,30.6489362 L5.24055009,16.1021277 C5.02755513,15.6446786 4.84499075,15.2787248 4.69285149,15.0042553 C4.54071222,14.7297859 4.37336154,14.5163128 4.19079443,14.3638298 C4.00822731,14.2113468 3.79523554,14.0969862 3.55181272,14.0207447 C3.3083899,13.9445032 2.98890224,13.8758868 2.59334016,13.8148936 C2.19777807,13.784397 2,13.5404278 2,13.0829787 C2,12.8695025 2.04564109,12.5950371 2.13692465,12.2595745 C2.89762097,12.3205677 3.64309217,12.3586879 4.37336063,12.3739362 C5.10362909,12.3891845 6.06209207,12.3968085 7.24877832,12.3968085 C8.34418101,12.3968085 9.30264399,12.3891845 10.124196,12.3739362 C10.945748,12.3586879 11.7672877,12.3205677 12.5888397,12.2595745 C12.6801233,12.5950371 12.7257644,12.8542544 12.7257644,13.037234 C12.7257644,13.4336899 12.5279863,13.662411 12.1324242,13.7234043 C11.4021558,13.8148941 10.9533517,13.9445027 10.7859985,14.112234 C10.6186453,14.2799654 10.53497,14.4858144 10.53497,14.7297872 C10.53497,14.8822703 10.5958248,15.1948558 10.7175362,15.6675532 C10.8392476,16.1402506 11.1587352,16.9712706 11.6760087,18.1606383 L14.597068,25.3425532 Z M39.3248163,27.812766 C39.598667,27.5992897 39.8420861,27.4925532 40.0550811,27.4925532 C40.2072204,27.4925532 40.3821779,27.5611695 40.5799589,27.6984043 C40.77774,27.835639 40.9831249,28.1024803 41.1961199,28.4989362 C40.0094336,29.9017801 38.6478076,30.9310251 37.1112011,31.5867021 C35.5745945,32.2423792 33.7565576,32.5702128 31.6570358,32.5702128 C30.4703495,32.5702128 29.3065016,32.3796118 28.1654572,31.9984043 C27.0244127,31.6171967 25.9974881,31.0225218 25.0846525,30.2143617 C24.1718169,29.4062016 23.4339526,28.3922047 22.8710373,27.1723404 C22.308122,25.9524762 22.0266686,24.488661 22.0266686,22.7808511 C22.0266686,21.1035377 22.3537631,19.5863543 23.007962,18.2292553 C23.6621608,16.8721563 24.4913073,15.7209267 25.4954265,14.7755319 C26.4995456,13.8301371 27.5949319,13.1058536 28.7816181,12.6026596 C29.9683044,12.0994656 31.1093317,11.8478723 32.2047344,11.8478723 C35.1562361,11.8478723 37.3850429,12.7017645 38.8912216,14.4095745 C40.3974003,16.1173844 41.1504783,18.4503398 41.1504783,21.4085106 C41.1504783,21.6219869 41.0439824,21.7287234 40.8309875,21.7287234 L27.7318624,22.2776596 C27.7318624,24.6563949 28.2643419,26.4785398 29.3293167,27.7441489 C30.3942916,29.0097581 31.9917299,29.6425532 34.1216795,29.6425532 C35.064943,29.6425532 35.9929785,29.4900724 36.9058141,29.1851064 C37.8186497,28.8801403 38.6249757,28.4226981 39.3248163,27.812766 Z M31.5201111,13.8606383 C30.3334249,13.8606383 29.3825688,14.3714488 28.6675142,15.3930851 C27.9524597,16.4147214 27.5949378,18.0233933 27.5949378,20.2191489 L34.7150197,19.8989362 C35.1714375,19.8684396 35.3996429,19.6702146 35.3996429,19.3042553 C35.3996429,18.7248198 35.3235745,18.1148968 35.1714352,17.4744681 C35.0192959,16.8340394 34.7834836,16.2469885 34.4639912,15.7132979 C34.1444987,15.1796073 33.7413357,14.7374131 33.2544901,14.3867021 C32.7676444,14.0359912 32.1895239,13.8606383 31.5201111,13.8606383 Z M53.0529509,32.25 C52.2618268,32.1890068 51.3566117,32.1356385 50.3372787,32.0898936 C49.3179456,32.0441487 48.3670895,32.0212766 47.4846818,32.0212766 C46.5109905,32.0212766 45.5449206,32.0441487 44.5864433,32.0898936 C43.6279659,32.1356385 42.7531783,32.1890068 41.9620541,32.25 C41.9316263,32.1280136 41.9088057,31.9984049 41.8935918,31.8611702 C41.8783779,31.7239355 41.870771,31.5638307 41.870771,31.3808511 C41.870771,31.1673748 41.924019,31.0225181 42.0305165,30.9462766 C42.1370139,30.8700351 42.2511167,30.8166668 42.3728281,30.7861702 C43.3465194,30.6031906 44.0159221,30.4049656 44.3810563,30.1914894 C44.7461905,29.9780131 44.9287549,29.6425555 44.9287549,29.1851064 L44.9287549,5.21489362 C44.9287549,4.29999543 44.7614042,3.60620804 44.4266979,3.13351064 C44.0919915,2.66081324 43.3921614,2.37872386 42.3271865,2.28723404 C41.9316245,2.19574422 41.7338464,1.95177503 41.7338464,1.55531915 L41.7338464,1.1893617 C41.7338464,1.03687867 41.7642738,0.914894074 41.8251295,0.823404255 C42.0076966,0.823404255 42.2739363,0.815780218 42.6238566,0.800531915 C42.9737769,0.785283612 43.3465125,0.770035537 43.7420746,0.754787234 C44.1376367,0.739538931 44.5331928,0.716666819 44.9287549,0.686170213 C45.324317,0.655673606 45.6894458,0.625177457 46.0241521,0.594680851 C46.7848485,0.503191032 47.515106,0.381206436 48.2149466,0.228723404 C48.9147872,0.0762403723 49.3864118,0 49.6298346,0 C50.1166803,0 50.3600994,0.228721117 50.3600994,0.686170213 C50.3600994,1.02163288 50.3144584,1.45620301 50.2231748,1.98989362 C50.1318912,2.52358423 50.0862501,3.27836391 50.0862501,4.25425532 L50.0862501,29.1851064 C50.0862501,29.6425555 50.2688145,29.9780131 50.6339487,30.1914894 C50.999083,30.4049656 51.6684857,30.6031906 52.642177,30.7861702 C52.9768834,30.8471634 53.144234,31.0453884 53.144234,31.3808511 C53.144234,31.8078036 53.1138066,32.097517 53.0529509,32.25 Z M53.5906774,22.2319149 C53.5906774,20.7375812 53.8569172,19.3576304 54.3894046,18.0920213 C54.921892,16.8264121 55.6597563,15.7285508 56.6030198,14.7984043 C57.5462832,13.8682578 58.6720969,13.1439742 59.9804945,12.6255319 C61.2888922,12.1070896 62.7189798,11.8478723 64.2708003,11.8478723 C65.8834765,11.8478723 67.3439915,12.1070896 68.6523891,12.6255319 C69.9607868,13.1439742 71.0866005,13.8682578 72.0298639,14.7984043 C72.9731273,15.7285508 73.695778,16.8264121 74.1978375,18.0920213 C74.6998971,19.3576304 74.9509231,20.7375812 74.9509231,22.2319149 C74.9509231,23.7262486 74.6846834,25.1061993 74.152196,26.3718085 C73.6197086,27.6374177 72.8742374,28.727655 71.91576,29.6425532 C70.9572827,30.5574514 69.8238621,31.2741109 68.5154645,31.7925532 C67.2070668,32.3109955 65.7769792,32.5702128 64.2251587,32.5702128 C62.6124825,32.5702128 61.1519675,32.3109955 59.8435699,31.7925532 C58.5351722,31.2741109 57.4169654,30.5574514 56.4889159,29.6425532 C55.5608664,28.727655 54.8458226,27.6374177 54.343763,26.3718085 C53.8417035,25.1061993 53.5906774,23.7262486 53.5906774,22.2319149 Z M59.3415128,21.3170213 C59.3415128,24.1227091 59.8055306,26.364176 60.7335801,28.0414894 C61.6616296,29.7188027 62.9928282,30.5574468 64.7272158,30.5574468 C66.339892,30.5574468 67.4885262,29.9094036 68.1731529,28.6132979 C68.8577795,27.3171921 69.2000877,25.4950472 69.2000877,23.1468085 C69.2000877,20.3716173 68.7284631,18.1301504 67.7851997,16.4223404 C66.8419362,14.7145305 65.5183445,13.8606383 63.8143848,13.8606383 C62.2017086,13.8606383 61.0530744,14.5239295 60.3684477,15.8505319 C59.683821,17.1771343 59.3415128,18.9992792 59.3415128,21.3170213 Z M85.5297908,13.8606383 C84.251821,13.8606383 83.293358,14.4934334 82.6543731,15.7590426 C82.0153882,17.0246517 81.6959005,18.724812 81.6959005,20.8595745 C81.6959005,23.9092351 82.2512005,26.135454 83.3618171,27.5382979 C84.4724337,28.9411418 86.0318378,29.6425532 88.040076,29.6425532 C88.7703445,29.6425532 89.4929952,29.5586888 90.2080497,29.3909574 C90.9231042,29.2232261 91.7066097,28.8648964 92.5585896,28.3159574 C92.8628681,28.1329778 93.1367146,28.0414894 93.3801375,28.0414894 C93.6235603,28.0414894 93.8213384,28.1406018 93.9734776,28.3388298 C94.1256169,28.5370577 94.2929676,28.8496433 94.4755347,29.2765957 C93.4714155,30.1914939 92.2771403,30.9691457 90.892673,31.6095745 C89.5082057,32.2500032 87.8118783,32.5702128 85.8036401,32.5702128 C84.4648146,32.5702128 83.1944708,32.3719878 81.9925706,31.9755319 C80.7906704,31.579076 79.7409252,30.9691531 78.8433036,30.1457447 C77.9456819,29.3223363 77.238245,28.2930913 76.7209715,27.0579787 C76.203698,25.8228662 75.9450651,24.3666751 75.9450651,22.6893617 C75.9450651,21.0730416 76.2569459,19.6016024 76.8807169,18.275 C77.5044879,16.9483976 78.303207,15.804792 79.2768983,14.8441489 C80.2505896,13.8835058 81.3459759,13.1439742 82.56309,12.6255319 C83.7802041,12.1070896 84.9668725,11.8478723 86.1231309,11.8478723 C87.5836678,11.8478723 88.8311911,12.0156012 89.8657381,12.3510638 C90.9002851,12.6865265 91.7446453,13.1058485 92.3988441,13.6090426 C93.053043,14.1122366 93.5322744,14.6459192 93.836553,15.2101064 C94.1408315,15.7742936 94.2929685,16.2851041 94.2929685,16.7425532 C94.2929685,16.986526 94.0723699,17.184751 93.631166,17.337234 C93.1899621,17.4897171 92.6955169,17.6040776 92.1478156,17.6803191 C91.6001143,17.7565607 91.0752417,17.8023049 90.5731821,17.8175532 C90.0711225,17.8328015 89.744028,17.8404255 89.5918888,17.8404255 C89.3180381,17.8404255 89.0974395,17.7565611 88.9300863,17.5888298 C88.7627331,17.4210985 88.6486304,17.2457456 88.5877747,17.062766 C88.4356354,16.6663101 88.2834984,16.2774842 88.1313591,15.8962766 C87.9792199,15.515069 87.8042624,15.1719873 87.6064813,14.8670213 C87.4087003,14.5620552 87.1424606,14.318086 86.8077542,14.1351064 C86.4730478,13.9521267 86.0470643,13.8606383 85.5297908,13.8606383 Z M100.444606,32.0212766 C99.2579195,32.0212766 98.2386017,32.0441487 97.3866218,32.0898936 C96.5346419,32.1356385 95.7131023,32.1890068 94.9219781,32.25 C94.8611224,31.9450339 94.830695,31.6553205 94.830695,31.3808511 C94.830695,31.1673748 94.8839429,31.0225181 94.9904404,30.9462766 C95.0969379,30.8700351 95.2110406,30.8166668 95.332752,30.7861702 C96.3064433,30.6031906 96.975846,30.4049656 97.3409803,30.1914894 C97.7061145,29.9780131 97.8886789,29.6425555 97.8886789,29.1851064 L97.8886789,17.1085106 C97.8886789,16.1936124 97.7365419,15.492201 97.4322634,15.0042553 C97.1279848,14.5163096 96.412941,14.2265962 95.2871105,14.1351064 C94.8915484,14.0741132 94.6937703,13.830144 94.6937703,13.4031915 L94.6937703,13.0601064 C94.6937703,12.9228717 94.7241977,12.793263 94.7850534,12.6712766 C94.9676205,12.6712766 95.2338603,12.6636526 95.5837806,12.6484043 C95.9337009,12.633156 96.3064365,12.6179079 96.7019986,12.6026596 C97.0975606,12.5874113 97.4931168,12.5645392 97.8886789,12.5340426 C98.284241,12.5035459 98.6493697,12.4730498 98.9840761,12.4425532 C99.7447724,12.3510634 100.47503,12.2290788 101.174871,12.0765957 C101.874711,11.9241127 102.346336,11.8478723 102.589759,11.8478723 C103.076604,11.8478723 103.320023,12.0765935 103.320023,12.5340426 C103.320023,12.8695052 103.274382,13.3116994 103.183099,13.8606383 C103.091815,14.4095772 103.046174,15.1719809 103.046174,16.1478723 L103.046174,29.1851064 C103.046174,29.6425555 103.243952,29.9780131 103.639514,30.1914894 C104.035076,30.4049656 104.689265,30.6031906 105.602101,30.7861702 C105.936807,30.8471634 106.104158,31.0453884 106.104158,31.3808511 L106.104158,31.8382979 C106.104158,31.9907809 106.073731,32.1280136 106.012875,32.25 C105.252179,32.1890068 104.430639,32.1356385 103.548231,32.0898936 C102.665823,32.0441487 101.631292,32.0212766 100.444606,32.0212766 Z M97.1127725,5.16914894 C97.1127725,4.19325753 97.4246533,3.39273362 98.0484243,2.76755319 C98.6721953,2.14237276 99.4557007,1.82978723 100.398964,1.82978723 C101.372655,1.82978723 102.163768,2.14237276 102.772325,2.76755319 C103.380882,3.39273362 103.685156,4.19325753 103.685156,5.16914894 C103.685156,6.14504034 103.380882,6.94556425 102.772325,7.57074468 C102.163768,8.19592511 101.372655,8.50851064 100.398964,8.50851064 C99.4557007,8.50851064 98.6721953,8.19592511 98.0484243,7.57074468 C97.4246533,6.94556425 97.1127725,6.14504034 97.1127725,5.16914894 Z M118.599971,29.0478723 C118.904249,28.8648927 119.162882,28.7734043 119.375877,28.7734043 C119.680156,28.7734043 119.999643,29.0936138 120.33435,29.7340426 C119.05638,30.8929136 117.938173,31.6553173 116.979696,32.0212766 C116.021218,32.3872359 115.009507,32.5702128 113.944533,32.5702128 C113.335976,32.5702128 112.750248,32.4939724 112.187333,32.3414894 C111.624418,32.1890063 111.114759,31.914541 110.658341,31.5180851 C110.201923,31.1216292 109.836794,30.5803226 109.562944,29.8941489 C109.289093,29.2079753 109.15217,28.331211 109.15217,27.2638298 L109.15217,14.6840426 L106.413677,14.6840426 L106.413677,13.5404255 C106.413677,13.4184391 106.444104,13.2659584 106.50496,13.0829787 C106.565816,12.8999991 106.74838,12.8085106 107.052658,12.8085106 C107.87421,12.8085106 108.634895,12.5721655 109.334736,12.0994681 C110.034577,11.6267707 110.597483,10.9177352 111.023473,9.97234043 C111.35818,9.27091848 111.730915,8.70673972 112.141691,8.27978723 C112.552467,7.85283474 112.95563,7.6393617 113.351192,7.6393617 L114.309665,7.6393617 L114.309665,12.3968085 L119.649726,12.3968085 C119.649726,13.3726999 119.581265,13.997871 119.444339,14.2723404 C119.307414,14.5468099 119.056388,14.6840426 118.691254,14.6840426 L114.309665,14.6840426 L114.309665,25.9829787 C114.309665,26.8978769 114.340092,27.6221605 114.400948,28.1558511 C114.461804,28.6895417 114.560693,29.0936156 114.697618,29.3680851 C114.834544,29.6425546 115.017108,29.8179074 115.245317,29.8941489 C115.473526,29.9703905 115.739765,30.0085106 116.044044,30.0085106 C116.37875,30.0085106 116.774306,29.9246462 117.230724,29.7569149 C117.687142,29.5891836 118.143553,29.3528384 118.599971,29.0478723 Z M131.369633,25.3425532 C132.099901,23.5432534 132.716056,22.0489421 133.218116,20.8595745 C133.720175,19.6702068 134.123338,18.6943301 134.427617,17.9319149 C134.731895,17.1694997 134.952494,16.5672008 135.089419,16.125 C135.226345,15.6827992 135.294806,15.3092214 135.294806,15.0042553 C135.294806,14.3943232 134.807968,13.9673771 133.834277,13.7234043 C133.621282,13.662411 133.469145,13.5937947 133.377861,13.5175532 C133.286577,13.4413117 133.240936,13.2812069 133.240936,13.037234 C133.240936,12.9457442 133.25615,12.8313837 133.286578,12.6941489 C133.317006,12.5569142 133.347433,12.4120575 133.377861,12.2595745 C134.594975,12.3510643 135.918567,12.3968085 137.348676,12.3968085 C138.626646,12.3968085 139.798101,12.3510643 140.863075,12.2595745 C140.923931,12.4120575 140.961965,12.5797863 140.977179,12.762766 C140.992393,12.9457456 141,13.0677302 141,13.1287234 C141,13.4641861 140.802222,13.6776591 140.40666,13.7691489 C139.98067,13.8606388 139.638362,13.9445032 139.379725,14.0207447 C139.121088,14.0969862 138.90049,14.2189708 138.717922,14.3867021 C138.535355,14.5544335 138.368005,14.7679065 138.215865,15.0271277 C138.063726,15.2863488 137.881162,15.6446786 137.668167,16.1021277 L128.083441,38.562766 C127.383601,40.1790861 126.402317,41.3226917 125.139561,41.993617 C123.876805,42.6645424 122.515179,43 121.054642,43 C120.780792,43 120.583014,42.9237596 120.461302,42.7712766 C120.339591,42.6187936 120.278736,42.4510647 120.278736,42.2680851 C120.278736,41.2312005 120.4613,40.3391881 120.826435,39.5920213 C121.191569,38.8448544 121.617552,38.4712766 122.104398,38.4712766 C122.378249,38.4712766 122.621668,38.5017727 122.834663,38.562766 C123.047658,38.6237592 123.351932,38.6542553 123.747494,38.6542553 C124.538618,38.6542553 125.139559,38.4941505 125.550335,38.1739362 C125.961111,37.8537218 126.318633,37.3429113 126.622912,36.6414894 L128.676781,31.7010638 L121.693624,16.1021277 C121.480629,15.6446786 121.298065,15.2863488 121.145925,15.0271277 C120.993786,14.7679065 120.826436,14.5620575 120.643868,14.4095745 C120.461301,14.2570914 120.24831,14.1427309 120.004887,14.0664894 C119.761464,13.9902478 119.441976,13.9063834 119.046414,13.8148936 C118.650852,13.7234038 118.453074,13.4641865 118.453074,13.037234 C118.453074,12.8542544 118.498715,12.5950371 118.589999,12.2595745 C119.320267,12.3205677 120.096166,12.3586879 120.917718,12.3739362 C121.73927,12.3891845 122.743374,12.3968085 123.93006,12.3968085 C125.025463,12.3968085 125.968712,12.3891845 126.759836,12.3739362 C127.55096,12.3586879 128.342073,12.3205677 129.133197,12.2595745 C129.22448,12.5950371 129.270121,12.8542544 129.270121,13.037234 C129.270121,13.4336899 129.072343,13.662411 128.676781,13.7234043 C127.946513,13.8148941 127.482495,13.9445027 127.284714,14.112234 C127.086933,14.2799654 126.988044,14.4858144 126.988044,14.7297872 C126.988044,14.8822703 127.064112,15.2024798 127.216252,15.6904255 C127.368391,16.1783712 127.703092,17.0017673 128.220366,18.1606383 L131.369633,25.3425532 Z" id="velocity" fill="#000000"></path>
                </g>
            </g>
        </g>
    </g>
</svg>