<?xml version="1.0" encoding="UTF-8" standalone="no"?>
<svg width="20px" height="23px" viewBox="0 0 20 23" version="1.1" xmlns="http://www.w3.org/2000/svg" xmlns:xlink="http://www.w3.org/1999/xlink">
    <!-- Generator: Sketch 39 (31667) - http://www.bohemiancoding.com/sketch -->
    <title>Group 6</title>
    <desc>Created with Sketch.</desc>
    <defs></defs>
    <g id="Page-1" stroke="none" stroke-width="1" fill="none" fill-rule="evenodd">
        <g id="Desktop-HD-Copy-6" transform="translate(-685.000000, -3216.000000)">
            <g id="2" transform="translate(0.000000, 2859.000000)">
                <g id="Group-7" transform="translate(619.000000, 325.000000)">
                    <g id="Group-9" transform="translate(0.000000, 30.000000)">
                        <g id="Group-6" transform="translate(66.000000, 2.000000)">
                            <g id="Layer_5" transform="translate(11.632140, 7.863415)" fill="#F2A74E">
                                <path d="M4.64380477,11.502437 L3.08094038,11.502437 C1.41086409,11.502437 0.0521460881,10.1314116 0.0521460881,8.44633893 L0.0521460881,3.06216685 C0.0521460881,1.3770353 1.41092249,0.00606883042 3.08094038,0.00606883042 L4.64380477,0.00606883042 C6.31388105,0.00606883042 7.67259906,1.3770353 7.67259906,3.06216685 L7.67259906,8.44633893 C7.67265745,10.1314116 6.31388105,11.502437 4.64380477,11.502437 L4.64380477,11.502437 Z M3.08099877,1.87597565 C2.43276392,1.87597565 1.90540521,2.40808834 1.90540521,3.06216685 L1.90540521,8.44633893 C1.90540521,9.10041744 2.43276392,9.63253013 3.08099877,9.63253013 L4.64386316,9.63253013 C5.29209802,9.63253013 5.81945672,9.10041744 5.81945672,8.44633893 L5.81945672,3.06216685 C5.81945672,2.40808834 5.29209802,1.87597565 4.64386316,1.87597565 L3.08099877,1.87597565 L3.08099877,1.87597565 Z" id="Shape"></path>
                            </g>
                            <g id="Layer_6" transform="translate(2.113873, 4.917380)" fill="#F9CB3A">
                                <path d="M13.0413104,1.72861502 L12.536667,14.4578984 L12.4934553,16.7699461 C12.4934553,17.4006331 9.82676389,17.9118878 6.53723916,17.9118878 C3.24771443,17.9118878 0.581023042,17.4006331 0.581023042,16.7699461 L0.537519307,14.3985064 L0.541022964,14.3985064 L0.038773799,1.72861502 C0.00233577103,0.808980987 0.731329908,0.0433656232 1.64350689,0.0433656232 L11.4366357,0.0433656232 C12.3486959,0.0433656232 13.0777484,0.808980987 13.0413104,1.72861502 L13.0413104,1.72861502 Z" id="Shape"></path>
                            </g>
                            <g id="Layer_7" transform="translate(4.274461, 8.099097)" fill="#F2A74E">
                                <path d="M1.10715547,12.5479256 C0.759475949,12.5479256 0.470657862,12.2709983 0.456117687,11.9172386 L0.00665694742,0.95834492 C-0.00823359286,0.595275667 0.271358199,0.288829191 0.631183725,0.273804417 C0.99235232,0.257895833 1.29471788,0.540891876 1.30960842,0.903902209 L1.75906916,11.8627959 C1.77401809,12.2258651 1.49436791,12.5323116 1.13460078,12.5473364 C1.12537448,12.5477488 1.11620658,12.5479256 1.10715547,12.5479256 L1.10715547,12.5479256 Z M8.30267329,11.9172386 L8.75219243,0.95834492 C8.76714136,0.595275667 8.48749117,0.288829191 8.12772404,0.273804417 C7.76824888,0.257306626 7.46418989,0.540832956 7.44929935,0.903902209 L6.99978021,11.8627959 C6.98483128,12.2258651 7.26448147,12.5323116 7.6242486,12.5473364 C7.63347489,12.5477488 7.64252601,12.5479256 7.65169391,12.5479256 C7.99931503,12.5479256 8.28819151,12.2709983 8.30267329,11.9172386 L8.30267329,11.9172386 Z M5.11440424,11.8900172 L5.11440424,0.705339505 C5.11440424,0.341975648 4.82249125,0.0474311504 4.46237375,0.0474311504 C4.10225626,0.0474311504 3.81034327,0.341975648 3.81034327,0.705339505 L3.81034327,11.8900172 C3.81034327,12.2533811 4.10225626,12.5479256 4.46237375,12.5479256 C4.82249125,12.5479256 5.11440424,12.2533811 5.11440424,11.8900172 L5.11440424,11.8900172 Z" id="Shape"></path>
                            </g>
                            <g id="Layer_8" transform="translate(0.484980, 0.000000)" fill="#FFFFFF">
                                <path d="M14.4007137,4.0689226 C14.2940858,4.0689226 14.1897352,4.07864452 14.0881292,4.0962618 C13.8804207,2.77054642 12.7430754,1.75675713 11.3707516,1.75675713 C11.253671,1.75675713 11.1385175,1.76500603 11.025291,1.77932376 C10.445903,0.965629115 9.5004997,0.435107279 8.43170927,0.435107279 C7.66989755,0.435107279 6.97080129,0.704728327 6.42201188,1.15405746 C6.09979227,0.622003687 5.51882762,0.266829806 4.85558544,0.266829806 C3.84244476,0.266829806 3.02107088,1.09554922 3.02107088,2.117882 C1.50141825,2.117882 0.269532609,3.36093167 0.269532609,4.89422462 C0.269532609,6.42757649 1.50147664,7.67056724 3.02107088,7.67056724 C3.37762632,7.67056724 3.71800656,7.60139435 4.0307079,7.47683603 C4.30247486,8.72177115 5.40168871,9.65354285 6.71719495,9.65354285 C8.23684758,9.65354285 9.46873321,8.41049318 9.46873321,6.87720023 C9.46873321,6.81910444 9.46639744,6.76159785 9.46289379,6.70438587 C9.50797417,6.6888308 9.55258739,6.67233301 9.59673347,6.65489249 C10.0758001,7.06309499 10.6945458,7.30956021 11.3706348,7.30956021 C11.9086796,7.30956021 12.4102281,7.15318471 12.8342289,6.88379935 C13.1564485,7.41585312 13.7374132,7.771027 14.4006553,7.771027 C15.413796,7.771027 16.2351699,6.94230759 16.2351699,5.9199748 C16.2352283,4.89764202 15.4139128,4.0689226 14.4007137,4.0689226 L14.4007137,4.0689226 Z" id="Shape"></path>
                            </g>
                        </g>
                    </g>
                </g>
            </g>
        </g>
    </g>
</svg>