<?xml version="1.0" encoding="UTF-8" standalone="no"?>
<svg width="65px" height="24px" viewBox="0 0 65 24" version="1.1" xmlns="http://www.w3.org/2000/svg" xmlns:xlink="http://www.w3.org/1999/xlink">
    <!-- Generator: Sketch 39 (31667) - http://www.bohemiancoding.com/sketch -->
    <title>Group 9</title>
    <desc>Created with Sketch.</desc>
    <defs>
        <polygon id="path-1" points="0 23.6150568 23.75 23.6150568 23.75 5.75539616e-13 0 5.75539616e-13"></polygon>
        <path d="M0.454375,18.8808594 C0.15625,18.7360618 0.116875,18.3588423 0.195625,18.0866477 L0.195625,18.0866477 C0.27375,17.8150746 6.875,1.24289773 6.875,1.24289773 L6.875,1.24289773 C6.875,1.24289773 7.5,0 8.125,0 L8.125,0 C8.815,0 9.375,1.24289773 9.375,1.24289773 L9.375,1.24289773 L16.065,18.1593572 C16.065,18.1593572 16.198125,18.6826172 15.709375,18.9231179 L15.709375,18.9231179 C14.619375,19.4581854 11.904375,20.5078125 8.125,20.5078125 L8.125,20.5078125 C4.241875,20.5078125 1.49,19.3829901 0.454375,18.8808594" id="path-3"></path>
    </defs>
    <g id="Page-1" stroke="none" stroke-width="1" fill="none" fill-rule="evenodd">
        <g id="Desktop-HD-Copy-6" transform="translate(-685.000000, -3215.000000)">
            <g id="2" transform="translate(0.000000, 2859.000000)">
                <g id="Group-7" transform="translate(619.000000, 325.000000)">
                    <g id="Group-9" transform="translate(0.000000, 30.000000)">
                        <text id="+" font-family="Campton-Book, Campton" font-size="16" font-weight="300" letter-spacing="7.33333397" fill="#FFFFFF">
                            <tspan x="92.821333" y="19">+</tspan>
                        </text>
                        <g id="1" transform="translate(109.000000, 0.000000)">
                            <g id="svg2">
                                <g id="g12" transform="translate(12.000000, 12.751420) scale(1, -1) translate(-12.000000, -12.751420) translate(0.000000, 0.751420)">
                                    <g id="g14">
                                        <g id="g16-Clipped">
                                            <mask id="mask-2" fill="white">
                                                <use xlink:href="#path-1"></use>
                                            </mask>
                                            <g id="path20"></g>
                                            <g id="g16" mask="url(#mask-2)">
                                                <g transform="translate(2.500000, 0.621449)">
                                                    <g id="g22" transform="translate(0.000000, 18.022017)">
                                                        <path d="M9.375,1.86434659 C13.910625,1.86434659 17.5,-0.621448864 18.561875,0.621448864 C18.685,0.822176847 18.75,1.02974077 18.75,1.24289773 C18.75,2.48579545 14.5525,4.35014205 9.375,4.35014205 C4.1975,4.35014205 0,2.48579545 0,1.24289773 C0,1.02974077 0.065,0.822176847 0.188125,0.621448864 C1.25,-0.621448864 4.839375,1.86434659 9.375,1.86434659" id="path24" fill="#F4900C"></path>
                                                    </g>
                                                    <g id="g26" transform="translate(1.250000, 0.000000)">
                                                        <path d="M8.125,20.5078125 C4.241875,20.5078125 1.49,19.3829901 0.454375,18.8808594 C0.15625,18.7360618 0.116875,18.3588423 0.195,18.0866477 C0.273125,17.8150746 6.875,1.24289773 6.875,1.24289773 C6.875,1.24289773 7.435,0 8.125,0 C8.815,0 9.375,1.24289773 9.375,1.24289773 L16.065,18.1593572 C16.065,18.1593572 16.198125,18.6819957 15.709375,18.9224964 C14.62,19.4581854 11.904375,20.5078125 8.125,20.5078125" id="path28" fill="#FFCC4D"></path>
                                                    </g>
                                                </g>
                                            </g>
                                        </g>
                                    </g>
                                    <g id="g30" transform="translate(3.750000, 0.621449)">
                                        <g id="g32-Clipped">
                                            <mask id="mask-4" fill="white">
                                                <use xlink:href="#path-3"></use>
                                            </mask>
                                            <g id="path36"></g>
                                            <g id="g32" mask="url(#mask-4)" opacity="0.599999964">
                                                <g transform="translate(-1.875000, 0.621449)">
                                                    <g id="g38" transform="translate(5.000000, 0.000000)">
                                                        <path d="M5,2.48579545 C5,1.11363636 3.880625,0 2.5,0 C1.119375,0 0,1.11363636 0,2.48579545 C0,3.85795455 1.119375,4.97159091 2.5,4.97159091 C3.880625,4.97159091 5,3.85795455 5,2.48579545" id="path40" fill="#BE1931"></path>
                                                    </g>
                                                    <g id="g42" transform="translate(4.375000, 6.835938)">
                                                        <path d="M5,2.48579545 C5,1.11363636 3.88,0 2.5,0 C1.119375,0 0,1.11363636 0,2.48579545 C0,3.85857599 1.119375,4.97159091 2.5,4.97159091 C3.88,4.97159091 5,3.85857599 5,2.48579545" id="path44" fill="#BE1931"></path>
                                                    </g>
                                                    <g id="g46" transform="translate(6.250000, 14.293324)">
                                                        <path d="M5,2.48579545 C5,1.11301491 3.88,0 2.5,0 C1.119375,0 0,1.11301491 0,2.48579545 C0,3.85857599 1.119375,4.97159091 2.5,4.97159091 C3.88,4.97159091 5,3.85857599 5,2.48579545" id="path48" fill="#BE1931"></path>
                                                    </g>
                                                    <g id="g50" transform="translate(11.875000, 11.186080)">
                                                        <path d="M5,2.48579545 C5,1.11301491 3.88,0 2.5,0 C1.12,0 0,1.11301491 0,2.48579545 C0,3.85857599 1.12,4.97159091 2.5,4.97159091 C3.88,4.97159091 5,3.85857599 5,2.48579545" id="path52" fill="#BE1931"></path>
                                                    </g>
                                                    <g id="g54" transform="translate(10.625000, 3.728693)">
                                                        <path d="M5,2.48579545 C5,1.11363636 3.88,0 2.5,0 C1.12,0 0,1.11363636 0,2.48579545 C0,3.85795455 1.12,4.97159091 2.5,4.97159091 C3.88,4.97159091 5,3.85795455 5,2.48579545" id="path56" fill="#BE1931"></path>
                                                    </g>
                                                    <g id="g58" transform="translate(0.000000, 11.807528)">
                                                        <path d="M5,2.48579545 C5,1.11301491 3.880625,0 2.5,0 C1.119375,0 0,1.11301491 0,2.48579545 C0,3.85857599 1.119375,4.97159091 2.5,4.97159091 C3.880625,4.97159091 5,3.85857599 5,2.48579545" id="path60" fill="#BE1931"></path>
                                                    </g>
                                                </g>
                                            </g>
                                        </g>
                                    </g>
                                </g>
                            </g>
                        </g>
                        <g id="Group-6" transform="translate(66.000000, 2.000000)">
                            <g id="Layer_5" transform="translate(11.632140, 7.863415)" fill="#F2A74E">
                                <path d="M4.64380477,11.502437 L3.08094038,11.502437 C1.41086409,11.502437 0.0521460881,10.1314116 0.0521460881,8.44633893 L0.0521460881,3.06216685 C0.0521460881,1.3770353 1.41092249,0.00606883042 3.08094038,0.00606883042 L4.64380477,0.00606883042 C6.31388105,0.00606883042 7.67259906,1.3770353 7.67259906,3.06216685 L7.67259906,8.44633893 C7.67265745,10.1314116 6.31388105,11.502437 4.64380477,11.502437 L4.64380477,11.502437 Z M3.08099877,1.87597565 C2.43276392,1.87597565 1.90540521,2.40808834 1.90540521,3.06216685 L1.90540521,8.44633893 C1.90540521,9.10041744 2.43276392,9.63253013 3.08099877,9.63253013 L4.64386316,9.63253013 C5.29209802,9.63253013 5.81945672,9.10041744 5.81945672,8.44633893 L5.81945672,3.06216685 C5.81945672,2.40808834 5.29209802,1.87597565 4.64386316,1.87597565 L3.08099877,1.87597565 L3.08099877,1.87597565 Z" id="Shape"></path>
                            </g>
                            <g id="Layer_6" transform="translate(2.113873, 4.917380)" fill="#F9CB3A">
                                <path d="M13.0413104,1.72861502 L12.536667,14.4578984 L12.4934553,16.7699461 C12.4934553,17.4006331 9.82676389,17.9118878 6.53723916,17.9118878 C3.24771443,17.9118878 0.581023042,17.4006331 0.581023042,16.7699461 L0.537519307,14.3985064 L0.541022964,14.3985064 L0.038773799,1.72861502 C0.00233577103,0.808980987 0.731329908,0.0433656232 1.64350689,0.0433656232 L11.4366357,0.0433656232 C12.3486959,0.0433656232 13.0777484,0.808980987 13.0413104,1.72861502 L13.0413104,1.72861502 Z" id="Shape"></path>
                            </g>
                            <g id="Layer_7" transform="translate(4.274461, 8.099097)" fill="#F2A74E">
                                <path d="M1.10715547,12.5479256 C0.759475949,12.5479256 0.470657862,12.2709983 0.456117687,11.9172386 L0.00665694742,0.95834492 C-0.00823359286,0.595275667 0.271358199,0.288829191 0.631183725,0.273804417 C0.99235232,0.257895833 1.29471788,0.540891876 1.30960842,0.903902209 L1.75906916,11.8627959 C1.77401809,12.2258651 1.49436791,12.5323116 1.13460078,12.5473364 C1.12537448,12.5477488 1.11620658,12.5479256 1.10715547,12.5479256 L1.10715547,12.5479256 Z M8.30267329,11.9172386 L8.75219243,0.95834492 C8.76714136,0.595275667 8.48749117,0.288829191 8.12772404,0.273804417 C7.76824888,0.257306626 7.46418989,0.540832956 7.44929935,0.903902209 L6.99978021,11.8627959 C6.98483128,12.2258651 7.26448147,12.5323116 7.6242486,12.5473364 C7.63347489,12.5477488 7.64252601,12.5479256 7.65169391,12.5479256 C7.99931503,12.5479256 8.28819151,12.2709983 8.30267329,11.9172386 L8.30267329,11.9172386 Z M5.11440424,11.8900172 L5.11440424,0.705339505 C5.11440424,0.341975648 4.82249125,0.0474311504 4.46237375,0.0474311504 C4.10225626,0.0474311504 3.81034327,0.341975648 3.81034327,0.705339505 L3.81034327,11.8900172 C3.81034327,12.2533811 4.10225626,12.5479256 4.46237375,12.5479256 C4.82249125,12.5479256 5.11440424,12.2533811 5.11440424,11.8900172 L5.11440424,11.8900172 Z" id="Shape"></path>
                            </g>
                            <g id="Layer_8" transform="translate(0.484980, 0.000000)" fill="#FFFFFF">
                                <path d="M14.4007137,4.0689226 C14.2940858,4.0689226 14.1897352,4.07864452 14.0881292,4.0962618 C13.8804207,2.77054642 12.7430754,1.75675713 11.3707516,1.75675713 C11.253671,1.75675713 11.1385175,1.76500603 11.025291,1.77932376 C10.445903,0.965629115 9.5004997,0.435107279 8.43170927,0.435107279 C7.66989755,0.435107279 6.97080129,0.704728327 6.42201188,1.15405746 C6.09979227,0.622003687 5.51882762,0.266829806 4.85558544,0.266829806 C3.84244476,0.266829806 3.02107088,1.09554922 3.02107088,2.117882 C1.50141825,2.117882 0.269532609,3.36093167 0.269532609,4.89422462 C0.269532609,6.42757649 1.50147664,7.67056724 3.02107088,7.67056724 C3.37762632,7.67056724 3.71800656,7.60139435 4.0307079,7.47683603 C4.30247486,8.72177115 5.40168871,9.65354285 6.71719495,9.65354285 C8.23684758,9.65354285 9.46873321,8.41049318 9.46873321,6.87720023 C9.46873321,6.81910444 9.46639744,6.76159785 9.46289379,6.70438587 C9.50797417,6.6888308 9.55258739,6.67233301 9.59673347,6.65489249 C10.0758001,7.06309499 10.6945458,7.30956021 11.3706348,7.30956021 C11.9086796,7.30956021 12.4102281,7.15318471 12.8342289,6.88379935 C13.1564485,7.41585312 13.7374132,7.771027 14.4006553,7.771027 C15.413796,7.771027 16.2351699,6.94230759 16.2351699,5.9199748 C16.2352283,4.89764202 15.4139128,4.0689226 14.4007137,4.0689226 L14.4007137,4.0689226 Z" id="Shape"></path>
                            </g>
                        </g>
                    </g>
                </g>
            </g>
        </g>
    </g>
</svg>