<?xml version="1.0" encoding="UTF-8" standalone="no"?>
<svg width="54px" height="54px" viewBox="0 0 54 54" version="1.1" xmlns="http://www.w3.org/2000/svg" xmlns:xlink="http://www.w3.org/1999/xlink">
    <!-- Generator: Sketch 39 (31667) - http://www.bohemiancoding.com/sketch -->
    <title>Group</title>
    <desc>Created with Sketch.</desc>
    <defs></defs>
    <g id="Page-1" stroke="none" stroke-width="1" fill="none" fill-rule="evenodd">
        <g id="Desktop-HD-Copy-6" transform="translate(-266.000000, -1866.000000)" fill="#9B9B9B">
            <g id="Group-14" transform="translate(266.000000, 1261.000000)">
                <g id="Group-12-Copy-3" transform="translate(0.000000, 475.000000)">
                    <g id="Group" transform="translate(0.000000, 130.000000)">
                        <path d="M53.9255906,25.4799213 C53.192126,12.4582677 42.8704724,1.60511811 29.9125984,0.244488189 C25.1185039,-0.276377953 21.9295276,-0.0106299213 19.7929134,2.79566929 C17.7413386,5.44251969 18.3259843,10.3003937 22.3440945,12.0862205 C24.8846457,13.223622 26.4685039,15.8598425 26.2665354,18.6448819 C26.0220472,21.9826772 23.215748,24.6826772 19.8566929,24.7996063 C19.8566929,24.7996063 16.061811,25.0334646 13.9677165,21.6318898 C12.8940945,19.8885827 11.1933071,18.6448819 9.25866142,18.5704724 C0.605905512,18.230315 -0.478346457,26.2240157 0.159448819,28.8708661 C1.07362205,42.6472441 12.6177165,53.6704724 26.4472441,53.9787402 C44.55,54.1275591 54.9673228,38.8204724 53.9255906,25.4799213 L53.9255906,25.4799213 Z M26.5003937,50.9811024 C14.2122047,50.7153543 3.95433071,40.9145669 3.13582677,28.6688976 C2.52992126,25.0547244 4.1988189,21.3767717 8.92913386,21.5468504 C9.92834646,21.6531496 10.8318898,22.2590551 11.4059055,23.1944882 C13.234252,26.1708661 16.4232283,27.9035433 19.9417323,27.7972441 C24.8102362,27.6377953 28.892126,23.7153543 29.2322835,18.8681102 C29.5192913,14.8287402 27.2338583,11.0125984 23.5452756,9.36496063 C21.4299213,8.21692913 21.2066929,5.91023622 22.2165354,4.53897638 C23.3326772,2.83818898 26.2877953,2.87007874 29.5724409,3.23149606 C41.0846457,4.44330709 50.2688976,14.0846457 50.9173228,25.6606299 C51.5870079,39.5433071 41.3503937,50.8854331 26.5003937,50.9811024 L26.5003937,50.9811024 Z" id="Shape"></path>
                        <path d="M38.469685,21.0366142 C41.2122047,21.0366142 43.4338583,18.8043307 43.4338583,16.0724409 C43.4338583,13.3405512 41.2015748,11.1082677 38.469685,11.1082677 C35.7377953,11.1082677 33.5055118,13.3405512 33.5055118,16.0724409 C33.5055118,18.8043307 35.7377953,21.0366142 38.469685,21.0366142 L38.469685,21.0366142 Z M38.469685,14.1059055 C39.553937,14.1059055 40.4362205,14.988189 40.4362205,16.0724409 C40.4362205,17.1566929 39.553937,18.0389764 38.469685,18.0389764 C37.3854331,18.0389764 36.5031496,17.1566929 36.5031496,16.0724409 C36.5031496,14.988189 37.3854331,14.1059055 38.469685,14.1059055 L38.469685,14.1059055 Z" id="Shape"></path>
                        <path d="M39.5858268,27.1807087 C36.8433071,27.1807087 34.6216535,29.4129921 34.6216535,32.1448819 C34.6216535,34.8767717 36.853937,37.1090551 39.5858268,37.1090551 C42.3177165,37.1090551 44.55,34.8767717 44.55,32.1448819 C44.55,29.4129921 42.3283465,27.1807087 39.5858268,27.1807087 L39.5858268,27.1807087 Z M39.5858268,34.1220472 C38.5015748,34.1220472 37.6192913,33.2397638 37.6192913,32.1555118 C37.6192913,31.0712598 38.5015748,30.1889764 39.5858268,30.1889764 C40.6700787,30.1889764 41.5523622,31.0712598 41.5523622,32.1555118 C41.5523622,33.2397638 40.6700787,34.1220472 39.5858268,34.1220472 L39.5858268,34.1220472 Z" id="Shape"></path>
                        <path d="M27.7866142,36.45 C25.0440945,36.45 22.8224409,38.6822835 22.8224409,41.4141732 C22.8224409,44.1566929 25.0547244,46.3783465 27.7866142,46.3783465 C30.5185039,46.3783465 32.7507874,44.146063 32.7507874,41.4141732 C32.7507874,38.6716535 30.5291339,36.45 27.7866142,36.45 L27.7866142,36.45 Z M27.7866142,43.3807087 C26.7023622,43.3807087 25.8200787,42.4984252 25.8200787,41.4141732 C25.8200787,40.3299213 26.7023622,39.4476378 27.7866142,39.4476378 C28.8708661,39.4476378 29.7531496,40.3299213 29.7531496,41.4141732 C29.7531496,42.4984252 28.8708661,43.3807087 27.7866142,43.3807087 L27.7866142,43.3807087 Z" id="Shape"></path>
                        <path d="M13.765748,30.6566929 C11.0232283,30.6566929 8.8015748,32.8889764 8.8015748,35.6208661 C8.8015748,38.3633858 11.0338583,40.5850394 13.765748,40.5850394 C16.4976378,40.5850394 18.7299213,38.3527559 18.7299213,35.6208661 C18.7299213,32.8783465 16.4976378,30.6566929 13.765748,30.6566929 L13.765748,30.6566929 Z M13.765748,37.5874016 C12.6814961,37.5874016 11.7992126,36.7051181 11.7992126,35.6208661 C11.7992126,34.5366142 12.6814961,33.6543307 13.765748,33.6543307 C14.85,33.6543307 15.7322835,34.5366142 15.7322835,35.6208661 C15.7322835,36.7051181 14.85,37.5874016 13.765748,37.5874016 L13.765748,37.5874016 Z" id="Shape"></path>
                    </g>
                </g>
            </g>
        </g>
    </g>
</svg>