<?xml version="1.0" encoding="UTF-8" standalone="no"?>
<svg width="44px" height="65px" viewBox="0 0 44 65" version="1.1" xmlns="http://www.w3.org/2000/svg" xmlns:xlink="http://www.w3.org/1999/xlink">
    <!-- Generator: Sketch 39 (31667) - http://www.bohemiancoding.com/sketch -->
    <title>Group</title>
    <desc>Created with Sketch.</desc>
    <defs></defs>
    <g id="Page-1" stroke="none" stroke-width="1" fill="none" fill-rule="evenodd">
        <g id="Desktop-HD-Copy-6" transform="translate(-933.000000, -1496.000000)" fill="#9B9B9B">
            <g id="Group" transform="translate(933.000000, 1496.000000)">
                <path d="M14.6293785,11.473913 C11.2112994,11.473913 6.69943503,10.2445652 3.96497175,4.37101449 C3.69152542,3.68804348 3.96497175,3.00507246 4.51186441,2.59528986 C4.64858757,2.45869565 7.65649718,0.682971014 11.4847458,0.682971014 C14.6293785,0.682971014 19.0045198,1.91231884 22.0124294,8.05905797 C22.1491525,8.33224638 22.1491525,8.74202899 22.0124294,9.15181159 C21.8757062,9.5615942 21.6022599,9.83478261 21.3288136,9.97137681 C21.1920904,9.97137681 18.320904,11.473913 14.6293785,11.473913 L14.6293785,11.473913 Z M7.10960452,4.37101449 C8.75028249,7.23949275 11.3480226,8.74202899 14.6293785,8.74202899 C16.2700565,8.74202899 17.7740113,8.33224638 18.8677966,8.05905797 C16.9536723,5.05398551 14.4926554,3.41485507 11.4847458,3.41485507 C9.70734463,3.41485507 8.06666667,3.96123188 7.10960452,4.37101449 L7.10960452,4.37101449 Z" id="Shape"></path>
                <path d="M21.8757062,64.8822464 C9.8440678,64.8822464 0.136723164,55.867029 0.136723164,44.8028986 C0.136723164,38.382971 3.28135593,32.5094203 8.88700565,28.6847826 C11.0745763,27.1822464 12.5785311,24.8601449 12.8519774,22.2648551 L12.9887006,21.4452899 C13.5355932,16.6644928 17.7740113,13.1130435 22.6960452,13.3862319 C27.2079096,13.6594203 31.0361582,17.3474638 31.4463277,21.9916667 L31.4463277,22.2648551 C31.719774,24.8601449 33.0870056,27.4554348 35.4112994,29.0945652 C40.6067797,32.9192029 43.6146893,38.6561594 43.6146893,44.8028986 C43.6146893,55.867029 33.9073446,64.8822464 21.8757062,64.8822464 L21.8757062,64.8822464 Z M22.1491525,16.1181159 C18.8677966,16.1181159 16.1333333,18.5768116 15.7231638,21.8550725 L15.5864407,22.6746377 C15.1762712,26.0894928 13.2621469,29.0945652 10.3909605,31.0068841 C5.60564972,34.2851449 2.73446328,39.3391304 2.73446328,44.8028986 C2.73446328,54.3644928 11.2112994,62.1503623 21.7389831,62.1503623 C32.2666667,62.1503623 40.7435028,54.3644928 40.7435028,44.8028986 C40.7435028,39.4757246 38.1457627,34.5583333 33.6338983,31.2800725 C30.7627119,29.0945652 28.8485876,25.9528986 28.5751412,22.5380435 L28.5751412,22.2648551 C28.3016949,18.9865942 25.7039548,16.2547101 22.4225989,16.1181159 L22.1491525,16.1181159 L22.1491525,16.1181159 Z" id="Shape"></path>
                <path d="M19.8248588,18.3036232 C19.6881356,17.484058 18.4576271,9.83478261 21.4655367,6.41992754 C22.4225989,5.19057971 23.9265537,4.6442029 25.5672316,4.6442029 L25.4305085,7.37608696 C24.6101695,7.37608696 24.0632768,7.64927536 23.5163842,8.19565217 C21.7389831,10.2445652 22.1491525,15.9815217 22.4225989,17.8938406 L19.8248588,18.3036232 L19.8248588,18.3036232 Z" id="Shape"></path>
                <path d="M35.5480226,51.4960145 L33.0870056,50.1300725 C34.7276836,47.2615942 35.0011299,44.5297101 34.180791,41.9344203 C32.4033898,36.7438406 26.3875706,34.0119565 26.2508475,34.0119565 L27.3446328,31.5532609 C27.6180791,31.6898551 34.5909605,34.8315217 36.7785311,41.1148551 C38.0090395,44.3931159 37.5988701,47.9445652 35.5480226,51.4960145 L35.5480226,51.4960145 Z" id="Shape"></path>
            </g>
        </g>
    </g>
</svg>