<?xml version="1.0" encoding="UTF-8" standalone="no"?>
<svg width="55px" height="55px" viewBox="0 0 55 55" version="1.1" xmlns="http://www.w3.org/2000/svg" xmlns:xlink="http://www.w3.org/1999/xlink">
    <!-- Generator: Sketch 39 (31667) - http://www.bohemiancoding.com/sketch -->
    <title>Shape</title>
    <desc>Created with Sketch.</desc>
    <defs></defs>
    <g id="Page-1" stroke="none" stroke-width="1" fill="none" fill-rule="evenodd">
        <g id="Desktop-HD-Copy-6" transform="translate(-440.000000, -1508.000000)" fill="#9B9B9B">
            <path d="M493.137356,1508.79642 C492.520832,1508.27849 491.748054,1508 490.954896,1508 C490.759578,1508 490.560864,1508.01698 490.363848,1508.05264 L461.487435,1513.14698 C459.863753,1513.43226 458.681658,1514.8417 458.681658,1516.49057 L458.681658,1519.88679 L458.681658,1521.58491 L458.681658,1545.64717 C456.957769,1544.39736 454.720959,1543.66038 452.23788,1543.66038 C450.794229,1543.66038 449.350578,1543.89981 447.942594,1544.36679 C444.719007,1545.4417 442.134023,1547.5966 440.850023,1550.28302 C439.85815,1552.35981 439.730769,1554.6183 440.486562,1556.64415 C441.779054,1560.10491 445.451023,1562.33962 449.841419,1562.33962 C451.28507,1562.33962 452.728721,1562.10358 454.135007,1561.63321 C457.356896,1560.5617 459.94188,1558.40679 461.22588,1555.72377 C461.777864,1554.56566 462.036023,1553.35321 462.046213,1552.15094 L462.076785,1552.15094 L462.076785,1524.98113 C462.272102,1524.98113 462.470816,1524.96415 462.667832,1524.93189 L490.954896,1519.94113 L490.954896,1540.55283 C489.229308,1539.30302 486.994197,1538.56604 484.509419,1538.56604 C483.065769,1538.56604 481.620419,1538.80547 480.214134,1539.27245 C476.990546,1540.34736 474.405562,1542.50226 473.124959,1545.18868 C472.133086,1547.26547 472.004007,1549.52396 472.7598,1551.54981 C474.053991,1555.01057 477.722562,1557.24528 482.114658,1557.24528 C483.558308,1557.24528 485.003658,1557.00925 486.409943,1556.53887 C489.630134,1555.46736 492.215118,1553.31245 493.499118,1550.62943 C494.0528,1549.47132 494.309261,1548.25887 494.32115,1547.0566 L494.351721,1547.0566 L494.351721,1516.49057 L494.351721,1514.79245 L494.351721,1511.39623 C494.351721,1510.39434 493.906737,1509.44 493.137356,1508.79642 L493.137356,1508.79642 Z M453.058213,1558.41358 C448.988816,1559.77038 444.781848,1558.44415 443.667689,1555.45887 C442.550134,1552.47019 444.943197,1548.9483 449.010896,1547.59151 C453.080292,1546.23472 457.287261,1547.55755 458.401419,1550.54623 C459.520673,1553.53321 457.12761,1557.05679 453.058213,1558.41358 L453.058213,1558.41358 Z M485.26861,1553.31925 C481.195816,1554.67604 476.988848,1553.34981 475.874689,1550.36453 C474.757134,1547.37585 477.151896,1543.85396 481.217896,1542.49717 C485.290689,1541.14038 489.497658,1542.46321 490.611816,1545.45189 C491.73107,1548.43887 489.339705,1551.96245 485.26861,1553.31925 L485.26861,1553.31925 Z M490.885261,1516.49057 L462.008848,1521.58491 L462.008848,1519.88679 L462.008848,1516.49057 L490.885261,1511.39623 L490.885261,1514.79245 L490.885261,1516.49057 L490.885261,1516.49057 Z" id="Shape"></path>
        </g>
    </g>
</svg>