<?xml version="1.0" encoding="UTF-8" standalone="no"?>
<svg width="20px" height="24px" viewBox="0 0 20 24" version="1.1" xmlns="http://www.w3.org/2000/svg" xmlns:xlink="http://www.w3.org/1999/xlink">
    <!-- Generator: Sketch 39 (31667) - http://www.bohemiancoding.com/sketch -->
    <title>g12</title>
    <desc>Created with Sketch.</desc>
    <defs>
        <polygon id="path-1" points="0 23.6150568 23.75 23.6150568 23.75 5.75539616e-13 0 5.75539616e-13"></polygon>
        <path d="M0.454375,18.8808594 C0.15625,18.7360618 0.116875,18.3588423 0.195625,18.0866477 L0.195625,18.0866477 C0.27375,17.8150746 6.875,1.24289773 6.875,1.24289773 L6.875,1.24289773 C6.875,1.24289773 7.5,0 8.125,0 L8.125,0 C8.815,0 9.375,1.24289773 9.375,1.24289773 L9.375,1.24289773 L16.065,18.1593572 C16.065,18.1593572 16.198125,18.6826172 15.709375,18.9231179 L15.709375,18.9231179 C14.619375,19.4581854 11.904375,20.5078125 8.125,20.5078125 L8.125,20.5078125 C4.241875,20.5078125 1.49,19.3829901 0.454375,18.8808594" id="path-3"></path>
    </defs>
    <g id="Page-1" stroke="none" stroke-width="1" fill="none" fill-rule="evenodd">
        <g id="Desktop-HD-Copy-6" transform="translate(-730.000000, -3215.000000)">
            <g id="2" transform="translate(0.000000, 2859.000000)">
                <g id="Group-7" transform="translate(619.000000, 325.000000)">
                    <g id="Group-9" transform="translate(0.000000, 30.000000)">
                        <g id="1" transform="translate(109.000000, 0.000000)">
                            <g id="svg2">
                                <g id="g12" transform="translate(12.000000, 12.751420) scale(1, -1) translate(-12.000000, -12.751420) translate(0.000000, 0.751420)">
                                    <g id="g14">
                                        <g id="g16-Clipped">
                                            <mask id="mask-2" fill="white">
                                                <use xlink:href="#path-1"></use>
                                            </mask>
                                            <g id="path20"></g>
                                            <g id="g16" mask="url(#mask-2)">
                                                <g transform="translate(2.500000, 0.621449)">
                                                    <g id="g22" transform="translate(0.000000, 18.022017)">
                                                        <path d="M9.375,1.86434659 C13.910625,1.86434659 17.5,-0.621448864 18.561875,0.621448864 C18.685,0.822176847 18.75,1.02974077 18.75,1.24289773 C18.75,2.48579545 14.5525,4.35014205 9.375,4.35014205 C4.1975,4.35014205 0,2.48579545 0,1.24289773 C0,1.02974077 0.065,0.822176847 0.188125,0.621448864 C1.25,-0.621448864 4.839375,1.86434659 9.375,1.86434659" id="path24" fill="#F4900C"></path>
                                                    </g>
                                                    <g id="g26" transform="translate(1.250000, 0.000000)">
                                                        <path d="M8.125,20.5078125 C4.241875,20.5078125 1.49,19.3829901 0.454375,18.8808594 C0.15625,18.7360618 0.116875,18.3588423 0.195,18.0866477 C0.273125,17.8150746 6.875,1.24289773 6.875,1.24289773 C6.875,1.24289773 7.435,0 8.125,0 C8.815,0 9.375,1.24289773 9.375,1.24289773 L16.065,18.1593572 C16.065,18.1593572 16.198125,18.6819957 15.709375,18.9224964 C14.62,19.4581854 11.904375,20.5078125 8.125,20.5078125" id="path28" fill="#FFCC4D"></path>
                                                    </g>
                                                </g>
                                            </g>
                                        </g>
                                    </g>
                                    <g id="g30" transform="translate(3.750000, 0.621449)">
                                        <g id="g32-Clipped">
                                            <mask id="mask-4" fill="white">
                                                <use xlink:href="#path-3"></use>
                                            </mask>
                                            <g id="path36"></g>
                                            <g id="g32" mask="url(#mask-4)" opacity="0.599999964">
                                                <g transform="translate(-1.875000, 0.621449)">
                                                    <g id="g38" transform="translate(5.000000, 0.000000)">
                                                        <path d="M5,2.48579545 C5,1.11363636 3.880625,0 2.5,0 C1.119375,0 0,1.11363636 0,2.48579545 C0,3.85795455 1.119375,4.97159091 2.5,4.97159091 C3.880625,4.97159091 5,3.85795455 5,2.48579545" id="path40" fill="#BE1931"></path>
                                                    </g>
                                                    <g id="g42" transform="translate(4.375000, 6.835938)">
                                                        <path d="M5,2.48579545 C5,1.11363636 3.88,0 2.5,0 C1.119375,0 0,1.11363636 0,2.48579545 C0,3.85857599 1.119375,4.97159091 2.5,4.97159091 C3.88,4.97159091 5,3.85857599 5,2.48579545" id="path44" fill="#BE1931"></path>
                                                    </g>
                                                    <g id="g46" transform="translate(6.250000, 14.293324)">
                                                        <path d="M5,2.48579545 C5,1.11301491 3.88,0 2.5,0 C1.119375,0 0,1.11301491 0,2.48579545 C0,3.85857599 1.119375,4.97159091 2.5,4.97159091 C3.88,4.97159091 5,3.85857599 5,2.48579545" id="path48" fill="#BE1931"></path>
                                                    </g>
                                                    <g id="g50" transform="translate(11.875000, 11.186080)">
                                                        <path d="M5,2.48579545 C5,1.11301491 3.88,0 2.5,0 C1.12,0 0,1.11301491 0,2.48579545 C0,3.85857599 1.12,4.97159091 2.5,4.97159091 C3.88,4.97159091 5,3.85857599 5,2.48579545" id="path52" fill="#BE1931"></path>
                                                    </g>
                                                    <g id="g54" transform="translate(10.625000, 3.728693)">
                                                        <path d="M5,2.48579545 C5,1.11363636 3.88,0 2.5,0 C1.12,0 0,1.11363636 0,2.48579545 C0,3.85795455 1.12,4.97159091 2.5,4.97159091 C3.88,4.97159091 5,3.85795455 5,2.48579545" id="path56" fill="#BE1931"></path>
                                                    </g>
                                                    <g id="g58" transform="translate(0.000000, 11.807528)">
                                                        <path d="M5,2.48579545 C5,1.11301491 3.880625,0 2.5,0 C1.119375,0 0,1.11301491 0,2.48579545 C0,3.85857599 1.119375,4.97159091 2.5,4.97159091 C3.880625,4.97159091 5,3.85857599 5,2.48579545" id="path60" fill="#BE1931"></path>
                                                    </g>
                                                </g>
                                            </g>
                                        </g>
                                    </g>
                                </g>
                            </g>
                        </g>
                    </g>
                </g>
            </g>
        </g>
    </g>
</svg>