<?xml version="1.0" encoding="UTF-8" standalone="no"?>
<svg width="95px" height="80px" viewBox="0 0 95 80" version="1.1" xmlns="http://www.w3.org/2000/svg" xmlns:xlink="http://www.w3.org/1999/xlink">
    <!-- Generator: Sketch 39 (31667) - http://www.bohemiancoding.com/sketch -->
    <title>Group</title>
    <desc>Created with Sketch.</desc>
    <defs>
        <path d="M90.914,0.806 C90.629,0.63 90.273,0.618 89.975,0.768 C89.419,1.046 77.895,7.011 57.123,30.775 C56.358,31.624 55.58,32.497 54.784,33.4 C44.776,44.757 37.217,54.582 37.143,54.681 C36.535,55.473 36.684,56.608 37.476,57.216 C37.588,57.302 37.708,57.373 37.832,57.428 C38.58,57.768 39.489,57.562 40.011,56.883 C40.059,56.82 43.147,52.806 47.968,46.972 L59.061,47.366 C60.058,47.402 60.897,46.621 60.933,45.624 C60.968,44.626 60.187,43.788 59.189,43.753 L50.898,43.457 C51.44,42.814 51.997,42.156 52.567,41.486 L65.275,41.855 C65.731,41.444 66.191,40.975 66.651,40.437 C73.411,32.547 79.252,25.146 83.124,20.239 C91.405,9.742 91.389,1.95 91.384,1.624 C91.379,1.288 91.202,0.979 90.914,0.806 Z" id="path-1"></path>
        <mask id="mask-2" maskContentUnits="userSpaceOnUse" maskUnits="objectBoundingBox" x="-3" y="-3" width="60.6152518" height="62.9250355">
            <rect x="33.7690145" y="-2.33596905" width="60.6152518" height="62.9250355" fill="white"></rect>
            <use xlink:href="#path-1" fill="black"></use>
        </mask>
    </defs>
    <g id="Page-1" stroke="none" stroke-width="1" fill="none" fill-rule="evenodd">
        <g id="Desktop-HD-Copy-6" transform="translate(-680.000000, -1959.000000)">
            <g id="Group-14" transform="translate(266.000000, 1261.000000)">
                <g id="Group-12-Copy-2" transform="translate(348.000000, 555.000000)">
                    <g id="Group" transform="translate(66.000000, 146.000000)">
                        <polygon id="Shape" stroke="#FFFFFF" fill="#9B9B9B" points="22.785 57.59 33.561 57.59 32.33 53.973 21.527 53.973"></polygon>
                        <polygon id="Shape" stroke="#FFFFFF" fill="#9B9B9B" points="35.537 46.863 19.055 46.863 20.313 50.48 36.768 50.48"></polygon>
                        <path d="M58.974,65.903 L50.215,65.903 C49.801,64.757 47.901,59.498 46.01,54.255 C44.872,55.674 43.977,56.809 43.367,57.586 C44.588,60.972 45.728,64.129 46.37,65.903 L30.268,65.903 C29.269,65.903 28.46,66.714 28.46,67.712 C28.46,67.777 28.463,67.842 28.471,67.905 C28.464,67.968 28.46,68.034 28.46,68.1 C28.46,68.53 28.363,72.3 25.016,72.3 C23.966,72.3 23.483,71.401 22.37,68.311 C22.172,67.732 14.07,43.987 13.446,42.1 L13.428,42.046 C13.274,41.579 13.039,40.873 12.659,40.12 C20.086,40.104 33.328,40.077 34.419,40.075 C35.705,40.077 37.164,40.07 38.39,43.722 C38.487,44.011 38.892,45.15 39.476,46.775 C40.281,45.778 41.175,44.681 42.144,43.502 C41.977,43.03 41.861,42.703 41.817,42.571 C40.001,37.164 36.924,36.458 34.439,36.458 L34.411,36.458 C32.888,36.462 7.679,36.515 7.679,36.515 L7.679,36.54 C7.5,36.525 7.317,36.515 7.126,36.515 C5.641,36.515 4.326,37.079 3.323,38.151 C0.712,40.938 0.986,46.393 1.026,47.006 C1.088,47.957 1.877,48.696 2.83,48.696 L2.83,48.696 L11.861,48.692 C14.422,56.217 18.705,68.769 18.951,69.492 C18.952,69.495 18.954,69.499 18.955,69.503 C18.957,69.509 18.959,69.514 18.96,69.52 C20.039,72.519 21.261,75.917 25.013,75.917 C25.151,75.917 25.284,75.91 25.417,75.904 C25.483,75.912 25.55,75.917 25.617,75.917 L53.719,75.917 C56.598,75.917 58.82,74.464 59.971,71.827 C60.757,70.03 60.779,68.291 60.779,68.099 C60.779,68.033 60.775,67.967 60.769,67.904 C60.775,67.841 60.779,67.776 60.779,67.711 C60.781,66.714 59.971,65.903 58.974,65.903 L58.974,65.903 Z M4.649,45.08 C4.75,43.499 5.104,41.541 5.963,40.625 C6.286,40.279 6.635,40.132 7.128,40.132 C8.699,40.132 9.326,41.159 9.996,43.183 L10.014,43.238 C10.099,43.496 10.319,44.146 10.635,45.079 L4.649,45.08 L4.649,45.08 Z M56.66,70.38 C56.08,71.708 55.174,72.301 53.722,72.301 L31.059,72.301 C31.532,71.383 31.815,70.406 31.957,69.521 L56.953,69.521 C56.882,69.796 56.788,70.09 56.66,70.38 L56.66,70.38 Z" id="Shape" stroke="#FFFFFF" fill="#9B9B9B"></path>
                        <use id="Shape" stroke="#9B9B9B" mask="url(#mask-2)" stroke-width="6" xlink:href="#path-1"></use>
                    </g>
                </g>
            </g>
        </g>
    </g>
</svg>