<?xml version="1.0" encoding="UTF-8" standalone="no"?>
<svg width="68px" height="42px" viewBox="0 0 68 42" version="1.1" xmlns="http://www.w3.org/2000/svg" xmlns:xlink="http://www.w3.org/1999/xlink">
    <!-- Generator: Sketch 39 (31667) - http://www.bohemiancoding.com/sketch -->
    <title>Shape</title>
    <desc>Created with Sketch.</desc>
    <defs></defs>
    <g id="Page-1" stroke="none" stroke-width="1" fill="none" fill-rule="evenodd">
        <g id="Desktop-HD-Copy-6" transform="translate(-1112.000000, -1876.000000)" fill="#9B9B9B">
            <g id="Group-14" transform="translate(266.000000, 1261.000000)">
                <g id="Group-12-Copy" transform="translate(689.000000, 475.000000)">
                    <path d="M221.798335,181.248224 L198.3,181.248224 C197.184573,181.248224 196.217869,180.578968 195.84606,179.463541 L192.57414,169.64778 C192.276693,168.755438 191.533075,168.457991 190.93818,168.457991 L190.93818,168.457991 C190.343286,168.457991 189.599667,168.755438 189.30222,169.64778 L186.104662,179.389179 C185.732853,180.430244 184.766149,181.173862 183.650722,181.173862 L160.078025,181.173862 C158.66515,181.173862 157.475361,179.984073 157.475361,178.571199 L157.475361,142.65444 C157.475361,141.241565 158.66515,140.051776 160.078025,140.051776 L221.872697,140.051776 C223.285572,140.051776 224.475361,141.241565 224.475361,142.65444 L224.475361,178.719922 C224.400999,180.058435 223.21121,181.248224 221.798335,181.248224 L221.798335,181.248224 Z M221.798335,142.65444 L160.003663,142.65444 L160.003663,178.719922 L183.501998,178.719922 L186.699556,168.978524 C187.294451,167.19384 188.930411,166.004051 190.789456,166.004051 L190.789456,166.004051 C192.648502,166.004051 194.284462,167.19384 194.879357,168.978524 L198.151277,178.794284 L221.649612,178.794284 L221.798335,142.65444 L221.798335,142.65444 Z M207.000333,168.383629 C202.76171,168.383629 199.266704,164.888624 199.266704,160.65 C199.266704,156.411376 202.76171,152.916371 207.000333,152.916371 C211.238957,152.916371 214.733963,156.411376 214.733963,160.65 C214.733963,164.888624 211.313319,168.383629 207.000333,168.383629 L207.000333,168.383629 Z M207.000333,155.519034 C204.174584,155.519034 201.869368,157.824251 201.869368,160.65 C201.869368,163.475749 204.174584,165.780966 207.000333,165.780966 C209.826082,165.780966 212.131299,163.475749 212.131299,160.65 C212.131299,157.824251 209.900444,155.519034 207.000333,155.519034 L207.000333,155.519034 Z M174.876027,168.383629 C170.563041,168.383629 167.142398,164.888624 167.142398,160.65 C167.142398,156.411376 170.637403,152.916371 174.876027,152.916371 C179.114651,152.916371 182.535294,156.411376 182.535294,160.65 C182.535294,164.888624 179.114651,168.383629 174.876027,168.383629 L174.876027,168.383629 Z M174.876027,155.519034 C172.050278,155.519034 169.745061,157.824251 169.745061,160.65 C169.745061,163.475749 172.050278,165.780966 174.876027,165.780966 C177.701776,165.780966 180.006993,163.475749 180.006993,160.65 C180.006993,157.824251 177.701776,155.519034 174.876027,155.519034 L174.876027,155.519034 Z" id="Shape"></path>
                </g>
            </g>
        </g>
    </g>
</svg>