<?xml version="1.0" encoding="UTF-8" standalone="no"?>
<svg width="237px" height="238px" viewBox="0 0 237 238" version="1.1" xmlns="http://www.w3.org/2000/svg" xmlns:xlink="http://www.w3.org/1999/xlink">
    <!-- Generator: Sketch 39 (31667) - http://www.bohemiancoding.com/sketch -->
    <title>noun_65883_cc</title>
    <desc>Created with Sketch.</desc>
    <defs></defs>
    <g id="Page-1" stroke="none" stroke-width="1" fill="none" fill-rule="evenodd">
        <g id="Desktop-HD-Copy-6" transform="translate(-762.000000, -789.000000)" fill="#000000">
            <g id="noun_65883_cc" transform="translate(762.000000, 789.000000)">
                <path d="M202.33164,34.6961653 C179.21703,11.5653884 151.27473,0 118.5,0 C85.72527,0 57.78297,11.5653884 34.66836,34.6961653 C11.55375,57.8269421 0,85.7940248 0,118.595041 C0,151.396058 11.55612,179.360769 34.66836,202.493917 C57.78297,225.624694 85.72527,237.190083 118.5,237.190083 C151.27473,237.190083 179.21703,225.624694 202.33164,202.493917 C225.44388,179.360769 237,151.396058 237,118.595041 C237,85.7940248 225.44388,57.829314 202.33164,34.6961653 L202.33164,34.6961653 Z M74.30424,129.731116 C71.20665,132.885744 67.52604,134.460686 63.2553,134.460686 C58.87791,134.460686 55.14042,132.911835 52.0452,129.81176 C48.94761,126.71643 47.4,122.975942 47.4,118.595041 C47.4,114.21414 48.94761,110.476025 52.04283,107.378322 C55.13805,104.278248 58.87554,102.729397 63.25293,102.729397 C67.63032,102.729397 71.33937,104.278248 74.38245,107.378322 C77.42553,110.476025 78.94707,114.216512 78.94707,118.595041 C78.94707,122.869207 77.39946,126.581231 74.30424,129.731116 L74.30424,129.731116 Z M173.90823,173.886421 C158.85399,173.886421 146.07021,168.810554 135.55452,158.66119 C125.03646,148.511826 119.40771,135.796066 118.65879,120.518653 L118.5,116.67143 C117.6468,101.394017 111.98724,88.6521653 101.52606,78.4482479 C91.06488,68.2443306 78.30717,63.1423719 63.2553,63.1423719 C47.45451,63.1423719 34.85796,67.8434793 25.46328,77.2456942 C16.06623,86.650281 10.19574,100.431025 7.84707,118.595041 C9.66249,85.9007603 20.84415,59.2714298 41.39442,38.7023058 C61.94469,18.1355537 87.64734,7.85336364 118.5,7.85336364 C148.60611,7.85336364 174.5742,18.5909587 196.40664,40.0685207 C218.23671,61.5437107 229.15293,87.1317769 229.15293,116.835091 C229.15293,132.96876 223.84176,146.509942 213.21705,157.461008 C202.59708,168.409702 189.49335,173.886421 173.90823,173.886421 L173.90823,173.886421 Z" id="Shape"></path>
                <path d="M173.85293,93 C169.47317,93 165.73805,94.5488512 162.64283,97.6489256 C159.54761,100.746628 158,104.487116 158,108.865645 C158,113.244174 159.54761,116.987033 162.64283,120.082364 C165.74042,123.182438 169.47554,124.731289 173.85293,124.731289 C178.12367,124.731289 181.80428,123.182438 184.90187,120.082364 C187.99709,116.987033 189.5447,113.246545 189.5447,108.865645 C189.5447,104.484744 188.02316,100.746628 184.98008,97.6489256 C181.93937,94.5488512 178.23032,93 173.85293,93 L173.85293,93 Z" id="Shape"></path>
            </g>
        </g>
    </g>
</svg>